<svg xmlns="http://www.w3.org/2000/svg" width="1100" height="1040" viewBox="0 0 1100 1040"><defs><marker id="arrow" viewBox="0 0 10 10" refX="9" refY="5" markerWidth="7" markerHeight="7" orient="auto-start-reverse"><path d="M0 0L10 5L0 10Z" fill="#63748a"/></marker></defs><rect width="100%" height="100%" fill="#f8fafd"/><g font-family="Microsoft YaHei, Noto Sans CJK SC, sans-serif"><text x="30" y="43" font-size="29" font-weight="700" fill="#172b47">游戏整体结构</text><text x="30" y="77" font-size="18" fill="#5b6c82">明确每个部分的职责，统一管理游戏进程。</text><g transform="translate(0 100)"><path d="M 545 88 L 545 140" fill="none" stroke="#63748a" stroke-width="2.2" marker-end="url(#arrow)"/>
<path d="M 545 218 L 545 280" fill="none" stroke="#63748a" stroke-width="2.2" marker-end="url(#arrow)"/>
<path d="M 545 358 L 545 399 L 160 399 L 160 440" fill="none" stroke="#63748a" stroke-width="2.2" marker-end="url(#arrow)"/>
<path d="M 545 358 L 545 440" fill="none" stroke="#63748a" stroke-width="2.2" marker-end="url(#arrow)"/>
<path d="M 545 358 L 545 399 L 925 399 L 925 440" fill="none" stroke="#63748a" stroke-width="2.2" marker-end="url(#arrow)"/>
<path d="M 545 518 L 545 620" fill="none" stroke="#63748a" stroke-width="2.2" marker-end="url(#arrow)"/>
<rect x="420" y="10" width="250" height="78" rx="12" fill="#eaf2ff" stroke="#4274c4" stroke-width="2"/>
<text x="545" y="56" text-anchor="middle" font-size="20" font-weight="600" fill="#20334e">玩家操作</text>
<rect x="420" y="140" width="250" height="78" rx="12" fill="#eaf2ff" stroke="#4274c4" stroke-width="2"/>
<text x="545" y="186" text-anchor="middle" font-size="20" font-weight="600" fill="#20334e">瞄准 / 蓄力 / 出杆</text>
<rect x="420" y="280" width="250" height="78" rx="12" fill="#fff6dd" stroke="#ae8429" stroke-width="2"/>
<text x="545" y="312" text-anchor="middle" font-size="20" font-weight="600" fill="#20334e">游戏流程</text>
<text x="545" y="340" text-anchor="middle" font-size="20" font-weight="400" fill="#20334e">管理阶段、杆数和结果</text>
<rect x="35" y="440" width="250" height="78" rx="12" fill="#eaf2ff" stroke="#4274c4" stroke-width="2"/>
<text x="160" y="472" text-anchor="middle" font-size="20" font-weight="600" fill="#20334e">白球运动</text>
<text x="160" y="500" text-anchor="middle" font-size="20" font-weight="400" fill="#20334e">滚动和大小变化</text>
<rect x="420" y="440" width="250" height="78" rx="12" fill="#eaf2ff" stroke="#4274c4" stroke-width="2"/>
<text x="545" y="472" text-anchor="middle" font-size="20" font-weight="600" fill="#20334e">目标与道具判断</text>
<text x="545" y="500" text-anchor="middle" font-size="20" font-weight="400" fill="#20334e">决定成功、翻转或失败</text>
<rect x="800" y="440" width="250" height="78" rx="12" fill="#eaf2ff" stroke="#4274c4" stroke-width="2"/>
<text x="925" y="472" text-anchor="middle" font-size="20" font-weight="600" fill="#20334e">界面提示</text>
<text x="925" y="500" text-anchor="middle" font-size="20" font-weight="400" fill="#20334e">力量、杆数和状态</text>
<rect x="420" y="620" width="250" height="78" rx="12" fill="#e5f5ee" stroke="#238064" stroke-width="2"/>
<text x="545" y="652" text-anchor="middle" font-size="20" font-weight="600" fill="#20334e">结果处理</text>
<text x="545" y="680" text-anchor="middle" font-size="20" font-weight="400" fill="#20334e">成功 / 重试 / 重开</text>
<text x="30" y="852" font-size="18" fill="#5b6c82">白球负责运动，判定负责检查，界面负责显示，游戏流程统一决定结果。</text></g><text x="30" y="1027" font-size="15" fill="#7b8797">数学桌球 · 简明版 · 2026-10-04</text></g></svg>