<svg xmlns="http://www.w3.org/2000/svg" width="1100" height="1170" viewBox="0 0 1100 1170"><defs><marker id="arrow" viewBox="0 0 10 10" refX="9" refY="5" markerWidth="7" markerHeight="7" orient="auto-start-reverse"><path d="M0 0L10 5L0 10Z" fill="#63748a"/></marker></defs><rect width="100%" height="100%" fill="#f8fafd"/><g font-family="Microsoft YaHei, Noto Sans CJK SC, sans-serif"><text x="30" y="43" font-size="29" font-weight="700" fill="#172b47">游戏有哪些阶段</text><text x="30" y="77" font-size="18" fill="#5b6c82">每个阶段只允许对应操作，避免重复出杆或重复结算。</text><g transform="translate(0 100)"><path d="M 535 88 L 535 140" fill="none" stroke="#63748a" stroke-width="2.2" marker-end="url(#arrow)"/>
<path d="M 535 218 L 535 290" fill="none" stroke="#63748a" stroke-width="2.2" marker-end="url(#arrow)"/>
<rect x="509" y="227" width="52" height="26" rx="5" fill="#f8fafd"/><text x="535" y="246" text-anchor="middle" font-size="16" fill="#506079">按下</text>
<path d="M 410 329 L 335 329 L 335 179 L 410 179" fill="none" stroke="#63748a" stroke-width="2.2" marker-end="url(#arrow)"/>
<rect x="309" y="227" width="52" height="26" rx="5" fill="#f8fafd"/><text x="335" y="246" text-anchor="middle" font-size="16" fill="#506079">取消</text>
<path d="M 535 368 L 535 440" fill="none" stroke="#63748a" stroke-width="2.2" marker-end="url(#arrow)"/>
<rect x="509" y="377" width="52" height="26" rx="5" fill="#f8fafd"/><text x="535" y="396" text-anchor="middle" font-size="16" fill="#506079">松开</text>
<path d="M 660 479 L 790 479" fill="none" stroke="#63748a" stroke-width="2.2" marker-end="url(#arrow)"/>
<rect x="682" y="452" width="86" height="26" rx="5" fill="#f8fafd"/><text x="725" y="471" text-anchor="middle" font-size="16" fill="#506079">达到目标</text>
<path d="M 535 518 L 535 590" fill="none" stroke="#63748a" stroke-width="2.2" marker-end="url(#arrow)"/>
<rect x="458" y="527" width="154" height="26" rx="5" fill="#f8fafd"/><text x="535" y="546" text-anchor="middle" font-size="16" fill="#506079">越界 / 未成功</text>
<path d="M 535 668 L 535 709 L 175 709 L 175 750" fill="none" stroke="#63748a" stroke-width="2.2" marker-end="url(#arrow)"/>
<rect x="312" y="682" width="86" height="26" rx="5" fill="#f8fafd"/><text x="355" y="701" text-anchor="middle" font-size="16" fill="#506079">仍有机会</text>
<path d="M 535 668 L 535 750" fill="none" stroke="#63748a" stroke-width="2.2" marker-end="url(#arrow)"/>
<rect x="492" y="682" width="86" height="26" rx="5" fill="#f8fafd"/><text x="535" y="701" text-anchor="middle" font-size="16" fill="#506079">机会耗尽</text>
<path d="M 35 789 L 20 789 L 20 179 L 410 179" fill="none" stroke="#63748a" stroke-width="2.2" marker-end="url(#arrow)"/>
<rect x="12" y="457" width="52" height="26" rx="5" fill="#f8fafd"/><text x="38" y="476" text-anchor="middle" font-size="16" fill="#506079">继续</text>
<rect x="410" y="10" width="250" height="78" rx="12" fill="#eaf2ff" stroke="#4274c4" stroke-width="2"/>
<text x="535" y="56" text-anchor="middle" font-size="20" font-weight="600" fill="#20334e">准备关卡</text>
<rect x="410" y="140" width="250" height="78" rx="12" fill="#eaf2ff" stroke="#4274c4" stroke-width="2"/>
<text x="535" y="186" text-anchor="middle" font-size="20" font-weight="600" fill="#20334e">瞄准</text>
<rect x="410" y="290" width="250" height="78" rx="12" fill="#eaf2ff" stroke="#4274c4" stroke-width="2"/>
<text x="535" y="336" text-anchor="middle" font-size="20" font-weight="600" fill="#20334e">蓄力</text>
<rect x="410" y="440" width="250" height="78" rx="12" fill="#eaf2ff" stroke="#4274c4" stroke-width="2"/>
<text x="535" y="486" text-anchor="middle" font-size="20" font-weight="600" fill="#20334e">滚动</text>
<rect x="790" y="440" width="280" height="78" rx="12" fill="#e5f5ee" stroke="#238064" stroke-width="2"/>
<text x="930" y="472" text-anchor="middle" font-size="20" font-weight="600" fill="#20334e">成功</text>
<text x="930" y="500" text-anchor="middle" font-size="20" font-weight="400" fill="#20334e">查看结果 / 重开</text>
<rect x="410" y="590" width="250" height="78" rx="12" fill="#eaf2ff" stroke="#4274c4" stroke-width="2"/>
<text x="535" y="636" text-anchor="middle" font-size="20" font-weight="600" fill="#20334e">本杆失败</text>
<rect x="35" y="750" width="280" height="78" rx="12" fill="#f1f4f8" stroke="#74849a" stroke-width="2"/>
<text x="175" y="782" text-anchor="middle" font-size="20" font-weight="600" fill="#20334e">有机会：复位</text>
<text x="175" y="810" text-anchor="middle" font-size="20" font-weight="400" fill="#20334e">回到瞄准</text>
<rect x="410" y="750" width="250" height="78" rx="12" fill="#fff0ee" stroke="#bc564b" stroke-width="2"/>
<text x="535" y="782" text-anchor="middle" font-size="20" font-weight="600" fill="#20334e">无机会：关卡失败</text>
<text x="535" y="810" text-anchor="middle" font-size="20" font-weight="400" fill="#20334e">查看结果 / 重开</text>
<text x="30" y="982" font-size="18" fill="#5b6c82">暂停时保留原位置和大小；恢复后继续。成功或关卡失败后，重开回到准备关卡。</text></g><text x="30" y="1157" font-size="15" fill="#7b8797">数学桌球 · 简明版 · 2026-10-04</text></g></svg>